<svg id="Capa_1" data-name="Capa 1" xmlns="http://www.w3.org/2000/svg" viewBox="0 0 383.34 383.46"><defs><style>.cls-1{fill:#fff;}</style></defs><path class="cls-1" d="M316,383.46H240.36c-6.78-3-9-8.27-9-15.56.23-32.57.1-65.13.1-97.69,0-5.59-.94-6.54-6.45-6.55H158.4c-5.53,0-6.45.95-6.45,6.55,0,32.56-.12,65.12.1,97.68,0,7.29-2.22,12.56-9,15.57H67.44a2.45,2.45,0,0,0-.59-.44C53.47,378.62,48,371.07,48,357V207.88c-8.67,0-16.88.07-25.09,0a32.47,32.47,0,0,1-8.49-.92,19.89,19.89,0,0,1-8.24-33.54C16.73,163,27.56,152.81,38.28,142.53Q110.39,73.4,182.51,4.27c5.9-5.65,12.27-5.67,18.21-.21.65.59,1.28,1.19,1.91,1.79q84.95,81.44,169.92,162.84c4.54,4.34,8.77,8.77,10.79,14.87v8.23c-3.91,12.16-12.56,16.94-24.89,16.11-2.1-.15-4.23,0-6.35,0H335.43v4.84q0,73.28,0,146.56A23.86,23.86,0,0,1,318,382.65C317.31,382.86,316.64,383.19,316,383.46Z"/></svg>